<svg width="24" height="24" viewBox="0 0 24 24" fill="none" xmlns="http://www.w3.org/2000/svg">
<path d="M12.0375 5.92505L19.772 8.33136C20.1901 8.46143 20.475 8.84836 20.475 9.28621V12.3139C20.475 12.7517 20.1901 13.1387 19.772 13.2687L12.0375 15.675M12.0375 5.92505L4.89704 3.70358C4.25336 3.50333 3.59998 3.98433 3.59998 4.65844V16.9417C3.59998 17.6158 4.25336 18.0968 4.89704 17.8965L12.0375 15.675M12.0375 5.92505V15.675" stroke="#1E1E1E" stroke-width="1.5"/>
<path d="M12.75 18.375V19.4C12.75 19.9523 13.1977 20.4 13.75 20.4H16.25C16.8023 20.4 17.25 19.9523 17.25 19.4V14.25" stroke="#1E1E1E" stroke-width="1.5" stroke-linecap="round"/>
</svg>
